<?xml version="1.0" encoding="utf-8"?>
<!-- Generator: Adobe Illustrator 18.1.1, SVG Export Plug-In . SVG Version: 6.00 Build 0)  -->
<!-- x="0px" y="0px"
	 width="356px" height="103px"   xml:space="preserve"  style="enable-background:new 0 0 356 103;"-->
<svg version="1.1" id="paulClellandLogo" aria-labelledby="title" aria-describedby="desc" xmlns="http://www.w3.org/2000/svg" xmlns:xlink="http://www.w3.org/1999/xlink" viewBox="0 0 356 103" preserveAspectRatio="xMidYMid meet" role="img">
<title id="title">Paul Clelland Accountancy logo</title>
<desc id="desc">A light green leaf motif with the text Paul Clelland Accountancy.</desc>
<style type="text/css">
	.st0{fill:#84C64A;}
	<!-- .st1{fill:none;} -->
	.st2{fill:#66AF10;}
	.st3{fill:#00BCD4;}
</style>
<path class="st0" d="M39.1,37.3c0,3.6-0.5,7-1.5,10.2c-0.1,0-0.2,0-0.4,0c-19.5,0-35.4-15.8-35.4-35.4c0-3.6,0.5-7,1.5-10.2
	c0.1,0,0.2,0,0.4,0C23.3,1.9,39.1,17.8,39.1,37.3z"/>
<g>
	<!-- <rect x="52" y="27.8" class="st1" width="418" height="59"/> -->
	<path class="st2" d="M57,60.3V29c0-0.3,0.1-0.6,0.3-0.8c0.2-0.2,0.5-0.3,0.8-0.3h9.5c2.6,0,4.9,0.9,6.7,2.8
		c1.9,1.9,2.8,4.1,2.8,6.8c0,2.6-0.9,4.9-2.8,6.8S70.3,47,67.6,47l-8.3,0.1v13.2c0,0.3-0.1,0.6-0.4,0.8c-0.2,0.2-0.5,0.3-0.8,0.3
		c-0.3,0-0.6-0.1-0.8-0.3C57.1,60.9,57,60.6,57,60.3z M59.3,44.7h8.3c2,0,3.7-0.8,5.1-2.2c1.4-1.4,2.1-3.1,2.1-5.1s-0.7-3.7-2.1-5.1
		c-1.4-1.4-3.1-2.1-5.1-2.1h-8.3V44.7z"/>
	<path class="st2" d="M102.2,38.2c0.2-0.2,0.5-0.3,0.8-0.3c0.3,0,0.6,0.1,0.8,0.3c0.2,0.2,0.3,0.5,0.3,0.8v21.2
		c0,0.3-0.1,0.6-0.3,0.8c-0.2,0.2-0.5,0.3-0.8,0.3c-0.3,0-0.6-0.1-0.8-0.3c-0.2-0.2-0.3-0.5-0.3-0.8v-3.5c-1,1.4-2.3,2.6-3.9,3.4
		c-1.6,0.8-3.2,1.2-5,1.2c-3.1,0-5.7-1.2-7.9-3.5c-2.2-2.3-3.3-5.1-3.3-8.3s1.1-6,3.3-8.3c2.2-2.3,4.8-3.5,7.9-3.5
		c1.8,0,3.4,0.4,5,1.2c1.6,0.8,2.8,2,3.9,3.4v-3.5C101.9,38.7,102,38.5,102.2,38.2z M84.2,49.7c0,2.6,0.9,4.9,2.6,6.7
		c1.7,1.8,3.8,2.8,6.2,2.8c2.4,0,4.5-0.9,6.2-2.8c1.7-1.8,2.6-4.1,2.6-6.7s-0.9-4.9-2.6-6.7c-1.7-1.9-3.8-2.8-6.2-2.8
		c-2.4,0-4.5,0.9-6.2,2.8C85.1,44.8,84.2,47,84.2,49.7z"/>
	<path class="st2" d="M113.7,51.8V39c0-0.3,0.1-0.6,0.3-0.8c0.2-0.2,0.5-0.3,0.8-0.3c0.3,0,0.6,0.1,0.8,0.3c0.2,0.2,0.3,0.5,0.3,0.8
		v12.8c0,2,0.7,3.7,2.1,5.1c1.4,1.4,3.1,2.1,5.1,2.2c2,0,3.7-0.8,5.2-2.2c1.4-1.4,2.1-3.1,2.1-5.1V39c0-0.3,0.1-0.6,0.4-0.8
		c0.2-0.2,0.5-0.3,0.8-0.3c0.3,0,0.6,0.1,0.8,0.3c0.2,0.2,0.3,0.5,0.3,0.8v12.8c0,2.7-0.9,4.9-2.8,6.8s-4.1,2.8-6.8,2.8
		c-2.7,0-4.9-0.9-6.8-2.8C114.6,56.8,113.7,54.5,113.7,51.8z"/>
	<path class="st2" d="M143.9,60.3V29c0-0.3,0.1-0.6,0.3-0.8c0.2-0.2,0.5-0.3,0.8-0.3c0.3,0,0.6,0.1,0.8,0.3c0.2,0.2,0.4,0.5,0.4,0.8
		v31.3c0,0.3-0.1,0.6-0.4,0.8s-0.5,0.3-0.8,0.3c-0.3,0-0.6-0.1-0.8-0.3C144,60.9,143.9,60.6,143.9,60.3z"/>
	<path class="st2" d="M174.1,56.5c-3.4-3.3-5.1-7.3-5.1-12c0-4.7,1.7-8.7,5.1-12c3.4-3.3,7.5-5,12.4-5c4,0,7.6,1.2,10.8,3.7
		c0.3,0.2,0.4,0.5,0.5,0.8c0,0.3,0,0.6-0.3,0.8c-0.2,0.3-0.5,0.4-0.8,0.5c-0.3,0-0.6,0-0.8-0.2c-2.8-2.2-5.9-3.3-9.4-3.3
		c-4.2,0-7.8,1.4-10.7,4.3c-2.9,2.9-4.4,6.4-4.4,10.4c0,4.1,1.5,7.5,4.4,10.4c2.9,2.8,6.4,4.3,10.3,4.3c3.9,0,7.2-1.1,9.7-3.3
		c0.3-0.2,0.6-0.3,0.9-0.2s0.6,0.2,0.7,0.5c0.2,0.2,0.3,0.5,0.3,0.9c0,0.4-0.2,0.6-0.4,0.8c-3.2,2.4-6.8,3.6-10.8,3.6
		C181.6,61.4,177.5,59.8,174.1,56.5z"/>
	<path class="st2" d="M207.3,60.3V29c0-0.3,0.1-0.6,0.3-0.8c0.2-0.2,0.5-0.3,0.8-0.3c0.3,0,0.6,0.1,0.8,0.3c0.2,0.2,0.4,0.5,0.4,0.8
		v31.3c0,0.3-0.1,0.6-0.4,0.8s-0.5,0.3-0.8,0.3c-0.3,0-0.6-0.1-0.8-0.3C207.4,60.9,207.3,60.6,207.3,60.3z"/>
	<path class="st2" d="M240,48.9V49c0,0.3-0.1,0.6-0.3,0.8c-0.2,0.2-0.5,0.3-0.8,0.3h-19.3c0.1,2.6,1.1,4.7,2.8,6.4
		c1.8,1.7,3.9,2.6,6.3,2.6c1.6,0,3-0.4,4.4-1.2c1.3-0.8,2.4-1.8,3.2-3.1c0.4-0.6,0.9-0.8,1.5-0.4c0.6,0.4,0.8,1,0.4,1.6
		c-1,1.6-2.4,2.9-4.1,3.9c-1.7,1-3.5,1.4-5.4,1.4c-3.2,0-5.9-1.1-8.1-3.4c-2.2-2.3-3.3-5.1-3.3-8.3c0-3.2,1.1-6,3.3-8.3
		c2.2-2.3,4.9-3.5,8-3.5c3.1,0,5.7,1,7.8,3.1S239.7,45.8,240,48.9z M234.4,42.4c-1.7-1.4-3.6-2.2-5.8-2.2c-2.2,0-4.1,0.7-5.8,2.1
		c-1.7,1.4-2.7,3.3-3.2,5.5h17.8C237.1,45.6,236.1,43.8,234.4,42.4z"/>
	<path class="st2" d="M248.5,60.3V29c0-0.3,0.1-0.6,0.3-0.8c0.2-0.2,0.5-0.3,0.8-0.3c0.3,0,0.6,0.1,0.8,0.3c0.2,0.2,0.4,0.5,0.4,0.8
		v31.3c0,0.3-0.1,0.6-0.4,0.8s-0.5,0.3-0.8,0.3c-0.3,0-0.6-0.1-0.8-0.3S248.5,60.6,248.5,60.3z"/>
	<path class="st2" d="M260.4,60.3V29c0-0.3,0.1-0.6,0.3-0.8c0.2-0.2,0.5-0.3,0.8-0.3c0.3,0,0.6,0.1,0.8,0.3c0.2,0.2,0.4,0.5,0.4,0.8
		v31.3c0,0.3-0.1,0.6-0.4,0.8s-0.5,0.3-0.8,0.3c-0.3,0-0.6-0.1-0.8-0.3S260.4,60.6,260.4,60.3z"/>
	<path class="st2" d="M289.8,38.2c0.2-0.2,0.5-0.3,0.8-0.3c0.3,0,0.6,0.1,0.8,0.3c0.2,0.2,0.3,0.5,0.3,0.8v21.2
		c0,0.3-0.1,0.6-0.3,0.8c-0.2,0.2-0.5,0.3-0.8,0.3c-0.3,0-0.6-0.1-0.8-0.3s-0.3-0.5-0.3-0.8v-3.5c-1,1.4-2.3,2.6-3.9,3.4
		c-1.6,0.8-3.2,1.2-5,1.2c-3.1,0-5.7-1.2-7.9-3.5s-3.3-5.1-3.3-8.3s1.1-6,3.3-8.3c2.2-2.3,4.8-3.5,7.9-3.5c1.8,0,3.4,0.4,5,1.2
		c1.6,0.8,2.8,2,3.9,3.4v-3.5C289.5,38.7,289.6,38.5,289.8,38.2z M271.8,49.7c0,2.6,0.9,4.9,2.6,6.7c1.7,1.8,3.8,2.8,6.2,2.8
		c2.4,0,4.5-0.9,6.2-2.8c1.7-1.8,2.6-4.1,2.6-6.7s-0.9-4.9-2.6-6.7c-1.7-1.9-3.8-2.8-6.2-2.8c-2.4,0-4.5,0.9-6.2,2.8
		C272.7,44.8,271.8,47,271.8,49.7z"/>
	<path class="st2" d="M304,60.5c-0.2,0.6-0.5,1-1.1,1h-0.3c-0.4-0.1-0.6-0.3-0.8-0.6c0,0,0-0.1,0-0.1l0-0.1V39.1
		c0-0.3,0.1-0.6,0.3-0.8c0.2-0.2,0.5-0.3,0.8-0.3c0.3,0,0.6,0.1,0.8,0.3c0.2,0.2,0.3,0.5,0.3,0.8v2.3c1.9-2.3,4.2-3.4,7-3.4
		c2.8,0,5.1,0.9,7,2.8s2.8,4.1,2.8,6.7v12.8c0,0.3-0.1,0.6-0.3,0.8c-0.2,0.2-0.5,0.3-0.8,0.3c-0.3,0-0.6-0.1-0.8-0.3
		s-0.3-0.5-0.3-0.8V47.5c0-2-0.7-3.7-2.1-5.1c-1.4-1.4-3.1-2.1-5.1-2.1c-2,0-3.7,0.7-5.1,2.1c-1.4,1.4-2.1,3.1-2.2,5.1V60.5z"/>
	<path class="st2" d="M350,60.3v-3.4c-1.1,1.4-2.4,2.5-3.9,3.3c-1.6,0.8-3.3,1.2-5.1,1.2c-3.2,0-5.9-1.1-8.1-3.4
		c-2.2-2.3-3.3-5.1-3.3-8.3c0-3.2,1.1-6,3.3-8.3c2.2-2.3,4.9-3.5,8.1-3.5c1.8,0,3.5,0.4,5.1,1.2c1.6,0.8,2.9,2,3.9,3.4V29
		c0-0.3,0.1-0.6,0.4-0.8c0.2-0.2,0.5-0.3,0.8-0.3c0.3,0,0.6,0.1,0.8,0.3c0.2,0.2,0.3,0.5,0.3,0.8v31.3c0,0.3-0.1,0.6-0.3,0.8
		c-0.2,0.2-0.5,0.3-0.8,0.3c-0.3,0-0.6-0.1-0.8-0.3C350.1,60.9,350,60.6,350,60.3z M331.9,49.7c0,2.6,0.9,4.8,2.7,6.6
		c1.8,1.8,3.9,2.7,6.3,2.7c2.4,0,4.5-0.9,6.3-2.6s2.7-3.9,2.8-6.4v-0.8c-0.1-2.5-1-4.7-2.8-6.4c-1.7-1.8-3.8-2.6-6.3-2.6
		c-2.4,0-4.6,0.9-6.3,2.8C332.8,44.9,331.9,47.1,331.9,49.7z"/>
</g>
<g>
	<!-- <rect x="54" y="69.8" class="st1" width="418" height="59"/> -->
	<path class="st3" d="M70.7,77.6c0.2-0.2,0.4-0.3,0.6-0.3s0.4,0.1,0.6,0.3c0.2,0.2,0.3,0.4,0.3,0.6v15.9c0,0.2-0.1,0.4-0.3,0.6
		c-0.2,0.2-0.4,0.3-0.6,0.3s-0.4-0.1-0.6-0.3c-0.2-0.2-0.3-0.4-0.3-0.6v-2.6c-0.8,1.1-1.7,1.9-2.9,2.6c-1.2,0.6-2.4,0.9-3.7,0.9
		c-2.3,0-4.3-0.9-5.9-2.6c-1.6-1.7-2.4-3.8-2.4-6.2s0.8-4.5,2.4-6.2c1.6-1.7,3.6-2.6,5.9-2.6c1.3,0,2.6,0.3,3.7,0.9
		c1.2,0.6,2.1,1.5,2.9,2.5v-2.6C70.4,78,70.5,77.8,70.7,77.6z M57.2,86.2c0,2,0.7,3.6,2,5c1.3,1.4,2.9,2.1,4.7,2.1
		c1.8,0,3.4-0.7,4.7-2.1c1.3-1.4,1.9-3.1,1.9-5s-0.6-3.6-1.9-5c-1.3-1.4-2.9-2.1-4.7-2.1c-1.8,0-3.4,0.7-4.7,2.1
		S57.2,84.2,57.2,86.2z"/>
	<path class="st3" d="M81,92.5c-1.8-1.7-2.6-3.8-2.6-6.3c0-2.5,0.9-4.5,2.6-6.2c1.8-1.7,3.8-2.6,6.1-2.6c2.3,0,4.3,0.6,5.9,1.9
		c0.2,0.1,0.3,0.3,0.3,0.5c0,0.2,0,0.5-0.2,0.6c-0.4,0.4-0.8,0.5-1.2,0.1c-1.3-1.1-2.9-1.6-4.8-1.6c-1.9,0-3.5,0.7-5,2.1
		c-1.4,1.4-2.1,3.1-2.1,5s0.7,3.6,2.1,5c1.4,1.4,3.1,2.1,4.9,2.1c1.9,0,3.5-0.5,4.8-1.5c0.4-0.3,0.8-0.3,1.2,0.2s0.3,0.8-0.2,1.2
		c-1.6,1.2-3.5,1.9-5.5,1.9C84.9,95,82.8,94.2,81,92.5z"/>
	<path class="st3" d="M101.6,92.5c-1.8-1.7-2.6-3.8-2.6-6.3c0-2.5,0.9-4.5,2.6-6.2c1.8-1.7,3.8-2.6,6.1-2.6c2.3,0,4.3,0.6,5.9,1.9
		c0.2,0.1,0.3,0.3,0.3,0.5c0,0.2,0,0.5-0.2,0.6c-0.4,0.4-0.8,0.5-1.2,0.1c-1.3-1.1-2.9-1.6-4.8-1.6c-1.9,0-3.5,0.7-5,2.1
		c-1.4,1.4-2.1,3.1-2.1,5s0.7,3.6,2.1,5c1.4,1.4,3.1,2.1,4.9,2.1c1.9,0,3.5-0.5,4.8-1.5c0.4-0.3,0.8-0.3,1.2,0.2s0.3,0.8-0.2,1.2
		c-1.6,1.2-3.5,1.9-5.5,1.9C105.5,95,103.3,94.2,101.6,92.5z"/>
	<path class="st3" d="M122.4,92.4c-1.6-1.7-2.4-3.8-2.4-6.2c0-2.4,0.8-4.5,2.4-6.2c1.6-1.7,3.6-2.6,5.9-2.6c2.3,0,4.3,0.9,5.9,2.6
		c1.6,1.7,2.4,3.8,2.4,6.2c0,2.4-0.8,4.5-2.4,6.2c-1.6,1.7-3.6,2.6-5.9,2.6C126,95,124,94.2,122.4,92.4z M128.3,79.1
		c-1.8,0-3.4,0.7-4.7,2.1c-1.3,1.4-2,3.1-2,5s0.7,3.6,2,5c1.3,1.4,2.9,2.1,4.7,2.1c1.8,0,3.4-0.7,4.7-2.1c1.3-1.4,2-3.1,2-5
		s-0.7-3.6-2-5C131.6,79.8,130.1,79.1,128.3,79.1z"/>
	<path class="st3" d="M142.9,87.8v-9.6c0-0.2,0.1-0.4,0.3-0.6c0.2-0.2,0.4-0.3,0.6-0.3c0.2,0,0.4,0.1,0.6,0.3s0.3,0.4,0.3,0.6v9.6
		c0,1.5,0.5,2.8,1.6,3.9c1.1,1.1,2.3,1.6,3.8,1.6c1.5,0,2.8-0.6,3.9-1.6c1.1-1.1,1.6-2.3,1.6-3.9v-9.6c0-0.2,0.1-0.4,0.3-0.6
		c0.2-0.2,0.4-0.3,0.6-0.3s0.4,0.1,0.6,0.3c0.2,0.2,0.3,0.4,0.3,0.6v9.6c0,2-0.7,3.7-2.1,5.1c-1.4,1.4-3.1,2.1-5.1,2.1
		s-3.7-0.7-5.1-2.1C143.6,91.5,142.9,89.8,142.9,87.8z"/>
	<path class="st3" d="M167,94.3c-0.1,0.5-0.4,0.7-0.8,0.7H166c-0.3-0.1-0.5-0.2-0.6-0.5c0,0,0-0.1,0-0.1l0-0.1V78.3
		c0-0.2,0.1-0.4,0.3-0.6c0.2-0.2,0.4-0.3,0.6-0.3c0.2,0,0.4,0.1,0.6,0.3c0.2,0.2,0.2,0.4,0.2,0.6V80c1.4-1.7,3.2-2.6,5.3-2.6
		c2.1,0,3.9,0.7,5.3,2.1c1.4,1.4,2.1,3.1,2.1,5.1v9.6c0,0.2-0.1,0.4-0.3,0.6c-0.2,0.2-0.4,0.3-0.6,0.3c-0.2,0-0.4-0.1-0.6-0.3
		c-0.2-0.2-0.3-0.4-0.3-0.6v-9.6c0-1.5-0.5-2.8-1.6-3.8c-1.1-1.1-2.3-1.6-3.8-1.6s-2.8,0.5-3.8,1.6c-1.1,1.1-1.6,2.3-1.7,3.9V94.3z"
		/>
	<path class="st3" d="M192.7,77.4c0.2,0,0.4,0.1,0.6,0.3c0.2,0.2,0.3,0.4,0.3,0.6c0,0.2-0.1,0.4-0.3,0.6c-0.2,0.2-0.4,0.3-0.6,0.3
		h-2.3V92c0,0.4,0.1,0.7,0.4,0.9c0.3,0.2,0.6,0.4,0.8,0.4c0.2,0,0.5,0.1,0.6,0.3c0.2,0.2,0.3,0.4,0.3,0.6c0,0.2-0.1,0.4-0.3,0.6
		c-0.2,0.2-0.4,0.3-0.6,0.3c-0.9,0-1.6-0.3-2.2-0.9c-0.6-0.6-0.9-1.3-0.9-2.2V79.1h-2.2c-0.4,0-0.6-0.1-0.7-0.2
		c-0.1-0.1-0.1-0.3-0.1-0.6c0-0.2,0-0.4,0-0.5c0.1-0.3,0.3-0.4,0.8-0.4h2.2v-6.6c0-0.2,0.1-0.4,0.3-0.6c0.2-0.2,0.4-0.3,0.6-0.3
		c0.2,0,0.4,0.1,0.6,0.3c0.2,0.2,0.3,0.4,0.3,0.6v6.6H192.7z"/>
	<path class="st3" d="M215.1,77.6c0.2-0.2,0.4-0.3,0.6-0.3c0.2,0,0.4,0.1,0.6,0.3s0.3,0.4,0.3,0.6v15.9c0,0.2-0.1,0.4-0.3,0.6
		c-0.2,0.2-0.4,0.3-0.6,0.3c-0.2,0-0.4-0.1-0.6-0.3c-0.2-0.2-0.3-0.4-0.3-0.6v-2.6c-0.8,1.1-1.7,1.9-2.9,2.6s-2.4,0.9-3.7,0.9
		c-2.3,0-4.3-0.9-5.9-2.6c-1.6-1.7-2.4-3.8-2.4-6.2s0.8-4.5,2.4-6.2c1.6-1.7,3.6-2.6,5.9-2.6c1.3,0,2.6,0.3,3.7,0.9
		c1.2,0.6,2.1,1.5,2.9,2.5v-2.6C214.8,78,214.9,77.8,215.1,77.6z M201.6,86.2c0,2,0.7,3.6,2,5c1.3,1.4,2.9,2.1,4.7,2.1
		c1.8,0,3.4-0.7,4.7-2.1c1.3-1.4,1.9-3.1,1.9-5s-0.6-3.6-1.9-5s-2.8-2.1-4.7-2.1c-1.8,0-3.4,0.7-4.7,2.1S201.6,84.2,201.6,86.2z"/>
	<path class="st3" d="M225.8,94.3c-0.1,0.5-0.4,0.7-0.8,0.7h-0.2c-0.3-0.1-0.5-0.2-0.6-0.5c0,0,0-0.1,0-0.1l0-0.1V78.3
		c0-0.2,0.1-0.4,0.3-0.6s0.4-0.3,0.6-0.3c0.2,0,0.4,0.1,0.6,0.3s0.2,0.4,0.2,0.6V80c1.4-1.7,3.2-2.6,5.3-2.6c2.1,0,3.9,0.7,5.3,2.1
		c1.4,1.4,2.1,3.1,2.1,5.1v9.6c0,0.2-0.1,0.4-0.3,0.6c-0.2,0.2-0.4,0.3-0.6,0.3c-0.2,0-0.4-0.1-0.6-0.3c-0.2-0.2-0.3-0.4-0.3-0.6
		v-9.6c0-1.5-0.5-2.8-1.6-3.8c-1.1-1.1-2.3-1.6-3.8-1.6c-1.5,0-2.8,0.5-3.8,1.6c-1.1,1.1-1.6,2.3-1.7,3.9V94.3z"/>
	<path class="st3" d="M247.5,92.5c-1.8-1.7-2.6-3.8-2.6-6.3c0-2.5,0.9-4.5,2.6-6.2c1.8-1.7,3.8-2.6,6.1-2.6c2.3,0,4.3,0.6,5.9,1.9
		c0.2,0.1,0.3,0.3,0.3,0.5c0,0.2,0,0.5-0.2,0.6c-0.4,0.4-0.8,0.5-1.2,0.1c-1.3-1.1-2.9-1.6-4.8-1.6s-3.5,0.7-5,2.1s-2.1,3.1-2.1,5
		s0.7,3.6,2.1,5c1.4,1.4,3.1,2.1,4.9,2.1c1.9,0,3.5-0.5,4.8-1.5c0.4-0.3,0.8-0.3,1.2,0.2c0.4,0.4,0.3,0.8-0.2,1.2
		c-1.6,1.2-3.5,1.9-5.5,1.9C251.4,95,249.3,94.2,247.5,92.5z"/>
	<path class="st3" d="M278.8,77.4c0.5,0.1,0.8,0.4,0.8,0.8v15.4c0,2.3-0.8,4.3-2.4,5.9c-1.6,1.6-3.6,2.4-5.9,2.4
		c-1.2,0-2.4-0.3-3.6-0.8c-0.5-0.3-0.6-0.7-0.4-1.1c0.2-0.4,0.6-0.6,1.1-0.5c0.9,0.5,1.9,0.7,2.9,0.7c1.8,0,3.4-0.6,4.7-1.9
		c1.3-1.3,2-2.8,2-4.6v-1.2c-1.5,1.7-3.3,2.5-5.3,2.5c-2.1,0-3.8-0.7-5.2-2.1c-1.4-1.4-2.1-3.1-2.1-5.1v-9.6c0-0.2,0.1-0.4,0.3-0.6
		s0.4-0.2,0.6-0.2c0.2,0,0.4,0.1,0.6,0.2s0.3,0.4,0.3,0.6v9.6c0,1.5,0.5,2.8,1.6,3.9c1.1,1.1,2.3,1.6,3.8,1.6s2.8-0.5,3.8-1.6
		c1.1-1.1,1.6-2.3,1.6-3.9v-9.6c0-0.2,0-0.3,0.1-0.4c0,0,0.1-0.1,0.1-0.2c0-0.1,0.1-0.2,0.4-0.3h0.1c0,0,0.1,0,0.1,0H278.8z"/>
</g>
</svg>